#!OML:ASF H:\Terrain\Patient Classification 1\Takeo\Monday\TakeoMonday.ASF
:FULLY-SPECIFIED
:DEGREES
928
root 9.9938 17.2246 -0.494152 -5.1987 -29.9828 1.74908
lowerback 11.3113 1.89859 -1.77867
upperback 5.64645 2.2436 -1.19172
thorax -0.468985 1.07246 -0.491272
lowerneck -13.9614 2.98818 -0.807963
upperneck -3.00519 4.08081 -2.60215
head 1.44554 1.95219 -0.466001
rclavicle -5.84924e-014 8.15017e-015
rhumerus -31.7177 22.0409 -87.8227
rradius 104.995
rwrist 2.2023
rhand -28.583 32.454
rfingers 7.12502
rthumb -1.94893 2.48319
lclavicle -5.84924e-014 8.15017e-015
lhumerus -35.6341 -13.0812 95.0768
lradius 109.237
lwrist 20.063
lhand -28.0988 3.37194
lfingers 7.12502
lthumb -1.48132 33.3465
rfemur -3.37969 -4.35284 17.8074
rtibia 35.3666
rfoot -23.851 -15.3776
rtoes -10.9163
lfemur -18.3892 13.7718 -19.6855
ltibia 41.09
lfoot -15.334 17.0386
ltoes -3.39016
929
root 9.99497 17.2036 -0.492394 -5.70636 -30.6195 2.31031
lowerback 11.1701 1.77841 -1.83109
upperback 5.65513 2.08448 -1.10938
thorax -0.387718 0.990161 -0.353753
lowerneck -13.438 3.31049 -0.835583
upperneck -3.15343 4.50638 -2.99514
head 1.31931 2.16061 -0.57185
rclavicle -5.54112e-014 1.59028e-015
rhumerus -33.391 21.4698 -88.3091
rradius 105.571
rwrist 2.42897
rhand -28.1982 32.781
rfingers 7.12502
rthumb -1.5773 2.80708
lclavicle -5.54112e-014 1.59028e-015
lhumerus -35.6624 -13.0645 95.3474
lradius 109.222
lwrist 19.9422
lhand -27.9165 3.27303
lfingers 7.12502
lthumb -1.30522 33.2488
rfemur -3.44223 -4.16931 17.2095
rtibia 35.8594
rfoot -23.9994 -14.9275
rtoes -10.7021
lfemur -18.1807 14.1257 -20.0772
ltibia 41.4014
lfoot -15.7438 17.3714
ltoes -2.65785
930
root 9.99815 17.1784 -0.514208 -5.34314 -31.1822 1.44481
lowerback 11.2307 1.48163 -0.776246
upperback 5.56686 1.80051 -0.687915
thorax -0.493574 0.863777 -0.480211
lowerneck -13.4611 3.71119 -0.497243
upperneck -2.7276 5.01583 -3.6888
head 1.50189 2.38705 -0.816816
rclavicle -4.47141e-014 4.91992e-015
rhumerus -34.9343 21.2231 -88.743
rradius 106.07
rwrist 2.51051
rhand -28.3731 32.8337
rfingers 7.12502
rthumb -1.74629 2.86107
lclavicle -4.47141e-014 4.91992e-015
lhumerus -35.6079 -12.8571 95.4396
lradius 109.228
lwrist 19.4348
lhand -27.1027 3.58001
lfingers 7.12502
lthumb -0.519262 33.5591
rfemur -3.7875 -3.79126 18.1671
rtibia 36.4138
rfoot -24.2378 -14.82
rtoes -9.54364
lfemur -18.3519 14.4269 -19.1322
ltibia 41.6807
lfoot -15.6098 17.6271
ltoes -1.69284
931
root 9.99927 17.1506 -0.530958 -5.57648 -32.1141 1.25305
lowerback 11.4873 1.31081 -0.408489
upperback 5.60769 1.60917 -0.426568
thorax -0.588227 0.769959 -0.400042
lowerneck -13.9054 4.16513 -0.15165
upperneck -1.99696 5.61354 -4.23317
head 1.8654 2.64963 -1.00075
rclavicle -4.62299e-014 -1.05604e-015
rhumerus -36.4121 21.182 -89.1585
rradius 106.519
rwrist 2.61784
rhand -28.9234 33.3809
rfingers 7.12502
rthumb -2.27774 3.41327
lclavicle -4.62299e-014 -1.05604e-015
lhumerus -35.4593 -12.2266 95.3096
lradius 109.234
lwrist 18.2561
lhand -25.2446 4.43149
lfingers 7.12502
lthumb 1.27534 34.4074
rfemur -3.91755 -3.17183 18.4376
rtibia 37.0031
rfoot -24.4412 -14.6298
rtoes -9.77104
lfemur -18.0563 15.0084 -18.6875
ltibia 41.902
lfoot -16.1108 17.7482
ltoes -1.5199
932
root 9.99632 17.1267 -0.521961 -6.83518 -33.1406 2.58082
lowerback 11.6136 1.35115 -1.1229
upperback 5.77425 1.58106 -0.559311
thorax -0.497985 0.741239 -0.133598
lowerneck -13.9656 4.48508 0.0481705
upperneck -1.68303 6.03582 -4.70935
head 2.01743 2.83732 -1.15825
rclavicle 3.31101e-014 -3.47873e-015
rhumerus -37.9451 20.9418 -89.5336
rradius 106.935
rwrist 2.87772
rhand -29.5581 33.9953
rfingers 7.12502
rthumb -2.8907 4.03514
lclavicle 3.31101e-014 -3.47873e-015
lhumerus -35.4458 -12.0278 95.3553
lradius 109.217
lwrist 17.8052
lhand -24.4794 4.40381
lfingers 7.12502
lthumb 2.01438 34.374
rfemur -3.77315 -2.68803 17.1205
rtibia 37.6653
rfoot -24.6843 -14.2306
rtoes -11.171
lfemur -17.2573 15.4775 -19.5954
ltibia 42.0482
lfoot -17.4732 17.9313
ltoes -0.757066
933
root 9.9956 17.1139 -0.511929 -7.79076 -33.5734 3.63657
lowerback 11.5663 1.20589 -1.50255
upperback 5.903 1.34785 -0.653453
thorax -0.342505 0.615811 0.0121154
lowerneck -13.8207 4.80392 0.277216
upperneck -1.55049 6.44528 -5.20577
head 2.07734 3.02381 -1.33385
rclavicle 7.39727e-014 -1.90833e-014
rhumerus -39.4463 20.5808 -89.8112
rradius 107.478
rwrist 3.03026
rhand -29.7125 33.9344
rfingers 7.12502
rthumb -3.03982 3.97631
lclavicle 7.39727e-014 -1.90833e-014
lhumerus -35.6646 -12.7329 95.9574
lradius 109.234
lwrist 20.2159
lhand -27.5521 2.34967
lfingers 7.12502
lthumb -0.953291 32.3273
rfemur -3.79277 -2.80344 16.0207
rtibia 38.4129
rfoot -24.8756 -13.9859
rtoes -12.7487
lfemur -16.7269 15.6894 -20.4313
ltibia 42.1442
lfoot -17.7466 18.2876
ltoes -1.52559
934
root 9.99419 17.1057 -0.515046 -8.26987 -33.4651 4.33518
lowerback 11.4055 0.79973 -1.79068
upperback 5.94622 0.786007 -0.655719
thorax -0.207172 0.327644 0.2392
lowerneck -13.7405 5.19626 0.52955
upperneck -1.43518 6.94596 -5.58134
head 2.14481 3.2588 -1.46747
rclavicle -8.7018e-014 3.97569e-016
rhumerus -40.6928 20.3655 -90.0302
rradius 108.077
rwrist 2.94157
rhand -29.2961 33.8561
rfingers 7.12502
rthumb -2.63769 3.89268
lclavicle -8.7018e-014 3.97569e-016
lhumerus -35.5556 -12.589 96.0006
lradius 109.284
lwrist 20.3
lhand -27.4895 2.61712
lfingers 7.12502
lthumb -0.89288 32.595
rfemur -4.06696 -3.09353 15.3383
rtibia 39.1497
rfoot -25.0406 -14.0216
rtoes -13.5658
lfemur -16.6915 15.713 -21.1112
ltibia 42.3397
lfoot -17.038 18.5844
ltoes -4.43829
